<svg xmlns="http://www.w3.org/2000/svg" width="41" height="11" fill="none"><path fill="#8D8D8D" d="M.54 10a.353.353 0 0 1-.238-.084.353.353 0 0 1-.084-.238V.536c0-.103.028-.182.084-.238A.324.324 0 0 1 .54.2h6.902c.103 0 .182.033.238.098a.296.296 0 0 1 .098.238v9.142a.324.324 0 0 1-.098.238.353.353 0 0 1-.238.084h-.714a.353.353 0 0 1-.238-.084.353.353 0 0 1-.084-.238V1.46H1.59v8.218a.324.324 0 0 1-.098.238.353.353 0 0 1-.238.084H.54Zm12.472.14c-1.027 0-1.825-.29-2.394-.868-.56-.579-.859-1.349-.896-2.31l-.014-.602.014-.602c.037-.952.34-1.717.91-2.296.57-.588 1.363-.882 2.38-.882 1.018 0 1.81.294 2.38.882.57.579.873 1.344.91 2.296.01.103.014.303.014.602s-.005.5-.014.602c-.037.961-.34 1.731-.91 2.31-.56.579-1.353.868-2.38.868Zm0-1.078c.588 0 1.05-.187 1.386-.56.345-.373.532-.91.56-1.61.01-.093.014-.27.014-.532 0-.261-.005-.439-.014-.532-.028-.7-.215-1.237-.56-1.61-.336-.373-.798-.56-1.386-.56-.588 0-1.055.187-1.4.56-.345.373-.527.91-.546 1.61l-.014.532.014.532c.019.7.2 1.237.546 1.61.345.373.812.56 1.4.56ZM24.257 2.72c.075 0 .14.028.196.084a.252.252 0 0 1 .098.196v6.678a.324.324 0 0 1-.098.238.303.303 0 0 1-.224.084h-.658a.353.353 0 0 1-.238-.084.353.353 0 0 1-.084-.238V4.596L19.371 9.79c-.102.14-.224.21-.364.21h-.63a.334.334 0 0 1-.224-.084.317.317 0 0 1-.084-.21V3.042c0-.093.028-.168.084-.224a.324.324 0 0 1 .238-.098h.672a.28.28 0 0 1 .224.098.28.28 0 0 1 .098.224v5.054L23.25 2.93c.103-.14.224-.21.364-.21h.644Zm5.284 7.42c-1 0-1.783-.28-2.352-.84-.56-.57-.86-1.363-.896-2.38l-.014-.56.014-.56c.037-1.017.335-1.806.896-2.366.569-.57 1.353-.854 2.352-.854.671 0 1.24.121 1.707.364.467.243.812.541 1.037.896.233.355.359.71.378 1.064a.245.245 0 0 1-.084.224.353.353 0 0 1-.239.084h-.672c-.093 0-.163-.019-.21-.056a.575.575 0 0 1-.14-.224c-.158-.448-.382-.765-.672-.952-.289-.196-.653-.294-1.091-.294-.58 0-1.041.182-1.386.546-.337.355-.518.9-.547 1.638l-.014.504.014.476c.029.747.21 1.297.547 1.652.335.355.797.532 1.386.532.438 0 .802-.093 1.091-.28.29-.196.514-.518.672-.966a.575.575 0 0 1 .14-.224c.047-.047.117-.07.21-.07h.672c.094 0 .173.033.238.098.066.056.094.13.084.224-.018.345-.144.7-.377 1.064-.224.355-.57.653-1.036.896-.458.243-1.027.364-1.708.364Zm10.86-.546a.28.28 0 0 1 .07.182.212.212 0 0 1-.084.168.306.306 0 0 1-.196.056h-.854c-.15 0-.27-.07-.364-.21l-2.03-2.926h-1.316v2.814a.324.324 0 0 1-.098.238.303.303 0 0 1-.224.084h-.658a.353.353 0 0 1-.238-.084.353.353 0 0 1-.084-.238V3.042c0-.093.028-.168.084-.224a.324.324 0 0 1 .238-.098h.658a.28.28 0 0 1 .224.098.28.28 0 0 1 .098.224V5.73h1.288l1.876-2.8c.112-.14.238-.21.378-.21h.728c.084 0 .154.023.21.07a.176.176 0 0 1 .084.154c0 .047-.023.103-.07.168l-2.086 3.094 2.366 3.388Z"/></svg>